# xmcd
#
# Track frame offsets:
#	150
#	19355
#	35736
#	56545
#	80553
#	100651
#	128419
#	144465
#	162576
#	186761
#	208197
#	226506
#	249339
#
# Disc length: 3707 seconds
#
# Revision: 0
# Processed by: cddbd v1.5.2PL0 Copyright (c) Steve Scherf et al.
# Submitted via: audiograbber 1.83.01
#
DISCID=a90e790d
DTITLE=Mary Chapin Carpenter - Sometimes Just the Sky
DYEAR=2018
DGENRE=Country
TTITLE0=Heroes and Heroines
TTITLE1=What Does It Mean to Travel
TTITLE2=I Have a Need for Solitude
TTITLE3=One Small Heart
TTITLE4=The Moon and St Christopher
TTITLE5=Superman
TTITLE6=Naked to the Eye
TTITLE7=Rhythm of the Blues
TTITLE8=This is Love
TTITLE9=Jericho
TTITLE10=The Calling
TTITLE11=This Shirt
TTITLE12=Sometimes Just the Sky
EXTD=
EXTT0=
EXTT1=
EXTT2=
EXTT3=
EXTT4=
EXTT5=
EXTT6=
EXTT7=
EXTT8=
EXTT9=
EXTT10=
EXTT11=
EXTT12=
PLAYORDER=
